<?xml version="1.0" encoding="iso-8859-1"?>
<!-- Generator: Adobe Illustrator 19.0.0, SVG Export Plug-In . SVG Version: 6.00 Build 0)  -->
<svg version="1.1" id="Layer_1" xmlns="http://www.w3.org/2000/svg" xmlns:xlink="http://www.w3.org/1999/xlink" x="0px" y="0px"
	 viewBox="0 0 512 512" style="enable-background:new 0 0 512 512;" xml:space="preserve">
<path style="fill:#F95428;" d="M185.429,291.419H45.173c-19.414,0-35.153,15.739-35.153,35.153v140.256
	c0,19.414,15.739,35.153,35.153,35.153h140.256c19.414,0,35.153-15.739,35.153-35.153V326.572
	C220.581,307.158,204.844,291.419,185.429,291.419z"/>
<path d="M129.471,396.7l35.984-35.984c3.913-3.913,3.913-10.257,0-14.169c-3.914-3.913-10.257-3.913-14.17,0l-35.982,35.982
	L79.32,346.547c-3.914-3.913-10.257-3.913-14.17,0c-3.913,3.913-3.913,10.257,0,14.169l35.984,35.984l-35.984,35.984
	c-3.913,3.913-3.913,10.257,0,14.169c1.957,1.956,4.522,2.935,7.086,2.935s5.129-0.978,7.086-2.935l35.982-35.982l35.982,35.982
	c1.957,1.956,4.522,2.935,7.086,2.935s5.129-0.978,7.086-2.935c3.913-3.913,3.913-10.257,0-14.169L129.471,396.7z"/>
<path style="fill:#2BA5F7;" d="M326.573,220.581h140.256c19.414,0,35.153-15.739,35.153-35.153V45.172
	c0-19.414-15.739-35.153-35.153-35.153H326.573c-19.414,0-35.153,15.739-35.153,35.153v140.256
	C291.42,204.843,307.159,220.581,326.573,220.581z"/>
<path d="M457.608,105.281H406.72V54.393c0-5.533-4.485-10.02-10.02-10.02s-10.02,4.486-10.02,10.02v50.888h-50.889
	c-5.535,0-10.02,4.486-10.02,10.02s4.485,10.02,10.02,10.02h50.889v50.888c0,5.533,4.485,10.02,10.02,10.02s10.02-4.486,10.02-10.02
	V125.32h50.888c5.535,0,10.02-4.486,10.02-10.02S463.142,105.281,457.608,105.281z"/>
<path style="fill:#9AD14B;" d="M291.42,326.572v140.256c0,19.414,15.739,35.153,35.153,35.153h140.256
	c19.414,0,35.153-15.739,35.153-35.153V326.572c0-19.414-15.739-35.153-35.153-35.153H326.573
	C307.159,291.419,291.42,307.158,291.42,326.572z"/>
<path d="M457.608,406.719H335.792c-5.535,0-10.02-4.486-10.02-10.02s4.485-10.02,10.02-10.02h121.816
	c5.535,0,10.02,4.486,10.02,10.02S463.142,406.719,457.608,406.719z"/>
<path style="fill:#E54728;" d="M32.731,466.828V326.572c0-19.414,15.739-35.153,35.153-35.153H45.173
	c-19.414,0-35.153,15.739-35.153,35.153v140.256c0,19.414,15.739,35.153,35.153,35.153h22.711
	C48.47,501.98,32.731,486.242,32.731,466.828z"/>
<path style="fill:#F7B239;" d="M220.581,185.428V45.172c0-19.414-15.739-35.153-35.153-35.153H45.173
	c-19.414,0-35.153,15.739-35.153,35.153v140.256c0,19.414,15.739,35.153,35.153,35.153h140.256
	C204.844,220.581,220.581,204.843,220.581,185.428z"/>
<path style="fill:#E09B2D;" d="M32.731,185.428V45.172c0-19.414,15.739-35.153,35.153-35.153H45.173
	c-19.414,0-35.153,15.739-35.153,35.153v140.256c0,19.414,15.739,35.153,35.153,35.153h22.711
	C48.47,220.581,32.731,204.843,32.731,185.428z"/>
<path style="fill:#2197D8;" d="M314.131,185.428V45.172c0-19.414,15.739-35.153,35.153-35.153h-22.711
	c-19.414,0-35.153,15.739-35.153,35.153v140.256c0,19.414,15.739,35.153,35.153,35.153h22.711
	C329.87,220.581,314.131,204.843,314.131,185.428z"/>
<path style="fill:#90BC42;" d="M314.131,466.828V326.572c0-19.414,15.739-35.153,35.153-35.153h-22.711
	c-19.414,0-35.153,15.739-35.153,35.153v140.256c0,19.414,15.739,35.153,35.153,35.153h22.711
	C329.87,501.98,314.131,486.242,314.131,466.828z"/>
<path d="M176.208,125.32H54.394c-5.535,0-10.02-4.486-10.02-10.02s4.485-10.02,10.02-10.02h121.816c5.535,0,10.02,4.486,10.02,10.02
	S181.743,125.32,176.208,125.32z"/>
<path d="M115.304,174.412c-2.644,0-5.224-1.069-7.094-2.939c-1.858-1.857-2.926-4.435-2.926-7.081c0-2.632,1.069-5.224,2.926-7.081
	c1.869-1.87,4.449-2.939,7.094-2.939c2.632,0,5.21,1.069,7.081,2.939c1.87,1.857,2.939,4.449,2.939,7.081
	c0,2.645-1.069,5.224-2.939,7.081C120.527,173.343,117.934,174.412,115.304,174.412z"/>
<path d="M115.304,76.22c-2.644,0-5.224-1.069-7.094-2.926c-1.858-1.87-2.926-4.449-2.926-7.094c0-2.632,1.069-5.21,2.926-7.081
	c1.869-1.857,4.449-2.926,7.094-2.926c2.632,0,5.224,1.069,7.081,2.926c1.87,1.87,2.939,4.449,2.939,7.081
	c0,2.645-1.069,5.224-2.939,7.094C120.527,75.151,117.934,76.22,115.304,76.22z"/>
<path d="M185.43,512H45.173c-24.907,0-45.172-20.264-45.172-45.172V326.572c0-24.909,20.265-45.172,45.172-45.172H185.43
	c24.909,0,45.172,20.264,45.172,45.172v140.256C230.601,491.736,210.337,512,185.43,512z M45.173,301.439
	c-13.859,0-25.133,11.274-25.133,25.133v140.256c0,13.859,11.274,25.133,25.133,25.133H185.43c13.858,0,25.133-11.274,25.133-25.133
	V326.572c0-13.859-11.274-25.133-25.133-25.133H45.173z"/>
<path d="M466.828,512H326.573c-24.909,0-45.172-20.264-45.172-45.172V326.572c0-24.909,20.265-45.172,45.172-45.172h140.254
	c24.909,0,45.172,20.264,45.172,45.172v140.256C512.001,491.736,491.736,512,466.828,512z M326.573,301.439
	c-13.859,0-25.133,11.274-25.133,25.133v140.256c0,13.859,11.274,25.133,25.133,25.133h140.254
	c13.859,0,25.133-11.274,25.133-25.133V326.572c0-13.859-11.274-25.133-25.133-25.133H326.573z"/>
<path d="M466.828,230.6H326.573c-24.909,0-45.172-20.264-45.172-45.172V45.172C281.4,20.264,301.665,0,326.573,0h140.254
	c24.909,0,45.172,20.264,45.172,45.172v140.256C512.001,210.337,491.736,230.6,466.828,230.6z M326.573,20.039
	c-13.859,0-25.133,11.274-25.133,25.133v140.256c0,13.859,11.274,25.133,25.133,25.133h140.254
	c13.859,0,25.133-11.274,25.133-25.133V45.172c0-13.859-11.274-25.133-25.133-25.133H326.573z"/>
<path d="M185.43,230.6H45.173c-24.907,0-45.172-20.264-45.172-45.172V45.172C0.001,20.264,20.266,0,45.173,0H185.43
	c24.909,0,45.172,20.264,45.172,45.172v140.256C230.601,210.337,210.337,230.6,185.43,230.6z M45.173,20.039
	c-13.859,0-25.133,11.274-25.133,25.133v140.256c0,13.859,11.274,25.133,25.133,25.133H185.43c13.858,0,25.133-11.274,25.133-25.133
	V45.172c-0.001-13.859-11.275-25.133-25.133-25.133H45.173z"/>
<g>
</g>
<g>
</g>
<g>
</g>
<g>
</g>
<g>
</g>
<g>
</g>
<g>
</g>
<g>
</g>
<g>
</g>
<g>
</g>
<g>
</g>
<g>
</g>
<g>
</g>
<g>
</g>
<g>
</g>
</svg>
